<svg width="36" height="35" viewBox="0 0 36 35" fill="none" xmlns="http://www.w3.org/2000/svg">
<path d="M23.25 17.5C23.25 18.8923 22.6969 20.2277 21.7123 21.2123C20.7278 22.1968 19.3924 22.75 18 22.75C16.6076 22.75 15.2723 22.1968 14.2877 21.2123C13.3031 20.2277 12.75 18.8923 12.75 17.5C12.75 17.2007 12.7815 16.9085 12.8358 16.625H11V23.6197C11 24.1062 11.3938 24.5 11.8803 24.5H24.1215C24.3547 24.4995 24.5781 24.4065 24.7428 24.2415C24.9075 24.0765 25 23.8529 25 23.6197V16.625H23.1643C23.2185 16.9085 23.25 17.2007 23.25 17.5ZM18 21C18.4598 20.9998 18.915 20.9092 19.3397 20.7331C19.7644 20.5571 20.1502 20.2991 20.4752 19.9739C20.8003 19.6488 21.058 19.2628 21.2339 18.838C21.4097 18.4132 21.5001 17.9579 21.5 17.4982C21.4999 17.0385 21.4092 16.5832 21.2332 16.1585C21.0571 15.7338 20.7992 15.348 20.474 15.023C20.1488 14.698 19.7628 14.4402 19.3381 14.2644C18.9133 14.0885 18.458 13.9981 17.9983 13.9982C17.0698 13.9984 16.1794 14.3675 15.523 15.0242C14.8666 15.6809 14.498 16.5715 14.4983 17.5C14.4985 18.4284 14.8676 19.3188 15.5243 19.9752C16.181 20.6316 17.0715 21.0002 18 21ZM22.2 13.825H24.2983C24.4377 13.825 24.5714 13.7697 24.6701 13.6713C24.7688 13.5729 24.8245 13.4393 24.825 13.2999V11.2017C24.825 11.062 24.7695 10.928 24.6707 10.8292C24.5719 10.7304 24.438 10.675 24.2983 10.675H22.2C22.0603 10.675 21.9263 10.7304 21.8275 10.8292C21.7288 10.928 21.6733 11.062 21.6733 11.2017V13.2999C21.675 13.5887 21.9113 13.825 22.2 13.825ZM18 0.699951C13.5444 0.699951 9.27123 2.46995 6.12062 5.62056C2.97001 8.77117 1.20001 13.0443 1.20001 17.5C1.20001 21.9556 2.97001 26.2287 6.12062 29.3793C9.27123 32.53 13.5444 34.2999 18 34.2999C20.2062 34.2999 22.3908 33.8654 24.4291 33.0211C26.4674 32.1768 28.3194 30.9394 29.8794 29.3793C31.4394 27.8193 32.6769 25.9673 33.5212 23.929C34.3655 21.8908 34.8 19.7062 34.8 17.5C34.8 15.2937 34.3655 13.1091 33.5212 11.0709C32.6769 9.0326 31.4394 7.18058 29.8794 5.62056C28.3194 4.06053 26.4674 2.82305 24.4291 1.97878C22.3908 1.1345 20.2062 0.699951 18 0.699951ZM26.75 24.3057C26.75 25.375 25.875 26.25 24.8058 26.25H11.1943C10.125 26.25 9.25001 25.375 9.25001 24.3057V10.6942C9.25001 9.62495 10.125 8.74995 11.1943 8.74995H24.8058C25.875 8.74995 26.75 9.62495 26.75 10.6942V24.3057Z" fill="black"/>
</svg>
