<svg width="35" height="35" viewBox="0 0 35 35" fill="none" xmlns="http://www.w3.org/2000/svg">
<g clip-path="url(#clip0_7_79)">
<path d="M32.8125 5.46875H2.1875C1.60734 5.46875 1.05094 5.69922 0.640704 6.10945C0.230468 6.51969 0 7.07609 0 7.65625L0 27.3438C0 27.9239 0.230468 28.4803 0.640704 28.8905C1.05094 29.3008 1.60734 29.5312 2.1875 29.5312H32.8125C33.3927 29.5312 33.9491 29.3008 34.3593 28.8905C34.7695 28.4803 35 27.9239 35 27.3438V7.65625C35 7.07609 34.7695 6.51969 34.3593 6.10945C33.9491 5.69922 33.3927 5.46875 32.8125 5.46875ZM29.9688 8.20312L18.4188 18.725C18.1684 18.9556 17.8404 19.0836 17.5 19.0836C17.1596 19.0836 16.8316 18.9556 16.5812 18.725L5.03125 8.20312H29.9688ZM2.73438 26.7969V9.8L14.7437 20.7375C15.4949 21.4293 16.4788 21.8133 17.5 21.8133C18.5212 21.8133 19.5051 21.4293 20.2563 20.7375L32.2656 9.8V26.7969H2.73438Z" fill="white"/>
</g>
<defs>
<clipPath id="clip0_7_79">
<rect width="35" height="35" fill="white"/>
</clipPath>
</defs>
</svg>
