<svg width="36" height="35" viewBox="0 0 36 35" fill="none" xmlns="http://www.w3.org/2000/svg">
<g clip-path="url(#clip0_7_93)">
<path d="M33.3125 5.46875H2.6875C2.10734 5.46875 1.55094 5.69922 1.1407 6.10945C0.730468 6.51969 0.5 7.07609 0.5 7.65625L0.5 27.3438C0.5 27.9239 0.730468 28.4803 1.1407 28.8905C1.55094 29.3008 2.10734 29.5312 2.6875 29.5312H33.3125C33.8927 29.5312 34.4491 29.3008 34.8593 28.8905C35.2695 28.4803 35.5 27.9239 35.5 27.3438V7.65625C35.5 7.07609 35.2695 6.51969 34.8593 6.10945C34.4491 5.69922 33.8927 5.46875 33.3125 5.46875ZM30.4688 8.20312L18.9188 18.725C18.6684 18.9556 18.3404 19.0836 18 19.0836C17.6596 19.0836 17.3316 18.9556 17.0812 18.725L5.53125 8.20312H30.4688ZM3.23438 26.7969V9.8L15.2437 20.7375C15.9949 21.4293 16.9788 21.8133 18 21.8133C19.0212 21.8133 20.0051 21.4293 20.7563 20.7375L32.7656 9.8V26.7969H3.23438Z" fill="black"/>
</g>
<defs>
<clipPath id="clip0_7_93">
<rect width="35" height="35" fill="white" transform="translate(0.5)"/>
</clipPath>
</defs>
</svg>
