<svg width="36" height="35" viewBox="0 0 36 35" fill="none" xmlns="http://www.w3.org/2000/svg">
<path d="M20.8053 17.2077L16.8748 15.3737C16.5318 15.2145 16.25 15.393 16.25 15.7727V19.2272C16.25 19.607 16.5318 19.7854 16.8748 19.6262L20.8035 17.7922C21.1483 17.6312 21.1483 17.3687 20.8053 17.2077ZM18 0.699951C8.72151 0.699951 1.20001 8.22145 1.20001 17.5C1.20001 26.7785 8.72151 34.2999 18 34.2999C27.2785 34.2999 34.8 26.7785 34.8 17.5C34.8 8.22145 27.2785 0.699951 18 0.699951ZM18 24.3249C9.40051 24.3249 9.25001 23.5497 9.25001 17.5C9.25001 11.4502 9.40051 10.675 18 10.675C26.5995 10.675 26.75 11.4502 26.75 17.5C26.75 23.5497 26.5995 24.3249 18 24.3249Z" fill="black"/>
</svg>
